<svg width="20" height="20" viewBox="0 0 20 20" fill="none" xmlns="http://www.w3.org/2000/svg"><path d="M4.156 13.815H2.031a.546.546 0 0 0-.531.531v2.125c0 .299.232.531.531.531h2.125a.546.546 0 0 0 .532-.53v-2.126c0-.265-.266-.531-.532-.531zm0-10.625H2.031a.546.546 0 0 0-.531.531v2.125c0 .299.232.531.531.531h2.125a.546.546 0 0 0 .532-.53V3.72c0-.265-.266-.531-.532-.531zm0 5.312H2.031a.546.546 0 0 0-.531.532v2.125c0 .298.232.53.531.53h2.125a.546.546 0 0 0 .532-.53V9.034c0-.266-.266-.532-.532-.532zm13.813 5.844H7.344a.546.546 0 0 0-.532.531v1.063c0 .299.233.531.532.531h10.625a.546.546 0 0 0 .531-.531v-1.063c0-.265-.266-.53-.531-.53zm0-10.625H7.344a.546.546 0 0 0-.532.531v1.063c0 .299.233.531.532.531h10.625a.546.546 0 0 0 .531-.531V4.252c0-.265-.266-.53-.531-.53zm0 5.313H7.344a.546.546 0 0 0-.532.53v1.063c0 .3.233.532.532.532h10.625a.546.546 0 0 0 .531-.532V9.565c0-.266-.266-.531-.531-.531z" fill="#000"/></svg>