<svg width="20" height="20" viewBox="0 0 20 20" fill="none" xmlns="http://www.w3.org/2000/svg"><path d="M17.643 13.953V5.951c0-.232-.233-.431-.498-.431-.366 0-1.793.93-3.088.93-.963 0-2.026-.93-4.217-.93-1.86 0-3.652.896-3.785.962V5.42c.465-.332.73-.897.73-1.494C6.785 2.863 5.955 2 4.893 2 3.83 2 3 2.863 3 3.926c0 .597.299 1.162.73 1.494V17.87c0 .631.499 1.129 1.163 1.129.597 0 1.128-.432 1.128-1.129v-2.59c.067-.033.133-.033.2-.066 1.129-.531 2.523-.996 3.851-.996 1.826 0 2.524.963 4.051.963 1.096 0 2.125-.366 3.088-.797.232-.1.432-.2.432-.432z" fill="#000"/></svg>