<svg width="20" height="20" viewBox="0 0 20 20" fill="none" xmlns="http://www.w3.org/2000/svg"><path d="M15.168 9.72c0-1.517.697-2.624 2.05-3.486-.779-1.107-1.927-1.681-3.445-1.804-1.476-.123-3.076.82-3.65.82-.615 0-2.01-.78-3.117-.78-2.297.042-4.717 1.805-4.717 5.456 0 1.066.164 2.174.574 3.322.533 1.518 2.42 5.209 4.389 5.127 1.025 0 1.764-.738 3.117-.738 1.313 0 1.969.738 3.117.738 2.01 0 3.733-3.363 4.225-4.88-2.666-1.272-2.543-3.692-2.543-3.774zm-2.297-6.726c1.107-1.312.984-2.543.984-2.994-.984.082-2.132.697-2.789 1.436-.738.82-1.148 1.845-1.066 2.953 1.066.082 2.05-.452 2.871-1.395z" fill="#000"/></svg>